<svg width="20" height="20" viewBox="0 0 20 20" fill="none" xmlns="http://www.w3.org/2000/svg">
<path d="M3.3335 15.8332H16.6668M9.41091 4.7558L7.25608 6.91062C6.93065 7.23606 6.40301 7.23606 6.07757 6.91062L4.75609 5.58913C4.23111 5.06416 3.3335 5.43597 3.3335 6.17839V12.4999C3.3335 12.9601 3.70659 13.3332 4.16683 13.3332H15.8335C16.2937 13.3332 16.6668 12.9601 16.6668 12.4999V6.17839C16.6668 5.43596 15.7692 5.06416 15.2442 5.58913L13.9228 6.91062C13.5973 7.23606 13.0697 7.23606 12.7442 6.91062L10.5894 4.7558C10.264 4.43036 9.73634 4.43036 9.41091 4.7558Z" stroke="#F2622E" stroke-linecap="round" stroke-linejoin="round"/>
</svg>
