<svg width="16" height="16" viewBox="0 0 16 16" fill="none" xmlns="http://www.w3.org/2000/svg">
<path d="M8.42462 12.8263C8.15732 12.6908 7.84268 12.6908 7.57538 12.8263L4.14953 14.5626C3.42397 14.9303 2.60702 14.2661 2.80376 13.4683L3.6048 10.2204C3.68139 9.90984 3.60066 9.58102 3.38941 9.3431L0.74513 6.36485C0.218041 5.77119 0.592458 4.82262 1.37805 4.76137L5.06688 4.47373C5.41195 4.44683 5.71524 4.23174 5.85844 3.91238L7.13562 1.06419C7.47294 0.311936 8.52706 0.311935 8.86438 1.06419L10.1416 3.91237C10.2848 4.23174 10.5881 4.44683 10.9331 4.47373L14.6219 4.76137C15.4075 4.82262 15.782 5.77119 15.2549 6.36485L12.6106 9.3431C12.3993 9.58102 12.3186 9.90984 12.3952 10.2204L13.1962 13.4683C13.393 14.2661 12.576 14.9303 11.8505 14.5626L8.42462 12.8263Z" stroke="#F2622E" stroke-linecap="round" stroke-linejoin="round"/>
</svg>
