<svg width="20" height="20" viewBox="0 0 20 20" fill="none" xmlns="http://www.w3.org/2000/svg">
<path d="M17.7585 7.49935H11.6815C10.2927 7.49935 9.16683 8.61864 9.16683 9.99935C9.16683 11.3801 10.2927 12.4993 11.6815 12.4993H17.7585M11.6668 9.99935V10.0077M2.96313 4.76787C3.40294 4.46694 6.48164 4.16602 10.0002 4.16602C13.5187 4.16602 16.5974 4.46694 17.0372 4.76787C17.2965 4.94527 17.5558 6.16691 17.7249 7.29106C17.7674 7.57347 17.8043 7.87602 17.8339 8.19384C17.8866 8.75686 17.9168 9.36777 17.9168 9.99939C17.9168 10.9876 17.8427 11.925 17.7249 12.7077C17.5558 13.8319 17.2965 15.0534 17.0372 15.2308C16.5974 15.5318 13.5187 15.8327 10.0002 15.8327C6.48164 15.8327 3.40294 15.5318 2.96313 15.2308C2.52331 14.9299 2.0835 12.4068 2.0835 9.99939C2.0835 9.36777 2.11377 8.75686 2.16638 8.19384C2.31428 6.61093 2.6387 4.98984 2.96313 4.76787Z" stroke="#F2622E" stroke-linecap="round" stroke-linejoin="round"/>
</svg>
